<?xml version="1.0" encoding="UTF-8"?>
<!DOCTYPE svg PUBLIC "-//W3C//DTD SVG 1.1//EN" "http://www.w3.org/Graphics/SVG/1.1/DTD/svg11.dtd">
<svg xmlns="http://www.w3.org/2000/svg" version="1.1" width="40px" height="40px" style="shape-rendering:geometricPrecision; text-rendering:geometricPrecision; image-rendering:optimizeQuality; fill-rule:evenodd; clip-rule:evenodd" xmlns:xlink="http://www.w3.org/1999/xlink">
<g><path style="opacity:0.942" fill="#092435" d="M 32.5,8.5 C 30.5,9.16667 28.5,9.83333 26.5,10.5C 24.4261,11.5139 22.4261,12.5139 20.5,13.5C 19.1148,14.9473 19.4482,15.9473 21.5,16.5C 22.1667,16.5 22.8333,16.5 23.5,16.5C 22.723,17.3358 21.3896,18.3358 19.5,19.5C 17.2078,20.6861 14.8744,20.6861 12.5,19.5C 11.3143,18.0387 11.3143,16.7054 12.5,15.5C 13.287,17.1042 14.6203,17.7709 16.5,17.5C 16.5,16.1667 16.5,14.8333 16.5,13.5C 15.1667,12.8333 13.8333,12.1667 12.5,11.5C 12.8039,10.8501 13.1373,10.1835 13.5,9.5C 12.0499,8.15017 11.3832,6.4835 11.5,4.5C 13.8742,5.21426 15.8742,6.5476 17.5,8.5C 19.386,7.06985 21.0527,5.40318 22.5,3.5C 24.9539,6.95989 28.2872,8.62656 32.5,8.5 Z"/></g>
<g><path style="opacity:0.204" fill="#223d4e" d="M 32.5,8.5 C 33.1174,8.61071 33.6174,8.94404 34,9.5C 34.6667,17.1667 34.6667,24.8333 34,32.5C 33.3292,33.2524 32.4959,33.5858 31.5,33.5C 27.5,32.8333 23.5,32.1667 19.5,31.5C 23.8333,31.5 28.1667,31.5 32.5,31.5C 32.5,25.5 32.5,19.5 32.5,13.5C 30.1432,13.3367 27.8098,13.5034 25.5,14C 24.6195,14.7083 23.9528,15.5416 23.5,16.5C 22.8333,16.5 22.1667,16.5 21.5,16.5C 23.129,14.8041 22.7957,13.8041 20.5,13.5C 22.4261,12.5139 24.4261,11.5139 26.5,10.5C 28.5,9.83333 30.5,9.16667 32.5,8.5 Z"/></g>
<g><path style="opacity:1" fill="#8eb0b6" d="M 26.5,10.5 C 28.604,10.2011 30.604,10.5344 32.5,11.5C 31.5,11.8333 30.5,12.1667 29.5,12.5C 27.9704,12.3601 26.9704,11.6935 26.5,10.5 Z"/></g>
<g><path style="opacity:0.99" fill="#dbe0e2" d="M 16.5,13.5 C 16.5,14.8333 16.5,16.1667 16.5,17.5C 14.6203,17.7709 13.287,17.1042 12.5,15.5C 13.1834,13.8235 14.5168,13.1568 16.5,13.5 Z"/></g>
<g><path style="opacity:0.988" fill="#bfc7cb" d="M 20.5,13.5 C 22.7957,13.8041 23.129,14.8041 21.5,16.5C 19.4482,15.9473 19.1148,14.9473 20.5,13.5 Z"/></g>
<g><path style="opacity:1" fill="#97bbc7" d="M 19.5,31.5 C 19.5,27.5 19.5,23.5 19.5,19.5C 21.3896,18.3358 22.723,17.3358 23.5,16.5C 23.9528,15.5416 24.6195,14.7083 25.5,14C 27.8098,13.5034 30.1432,13.3367 32.5,13.5C 32.5,19.5 32.5,25.5 32.5,31.5C 28.1667,31.5 23.8333,31.5 19.5,31.5 Z"/></g>
<g><path style="opacity:1" fill="#3d5764" d="M 30.5,17.5 C 30.5,18.1667 30.5,18.8333 30.5,19.5C 25.4385,20.5057 25.4385,19.839 30.5,17.5 Z"/></g>
<g><path style="opacity:1" fill="#cde8ec" d="M 30.5,17.5 C 25.4385,19.839 25.4385,20.5057 30.5,19.5C 31.8333,21.1667 31.8333,22.8333 30.5,24.5C 29.3406,22.7497 27.674,21.7497 25.5,21.5C 23.0399,20.3657 21.7066,21.3657 21.5,24.5C 19.8374,20.7932 21.1708,18.7932 25.5,18.5C 25.7593,14.9319 27.7593,13.5985 31.5,14.5C 31.7373,15.791 31.404,16.791 30.5,17.5 Z"/></g>
<g><path style="opacity:0.871" fill="#0f2737" d="M 12.5,11.5 C 13.8333,12.1667 15.1667,12.8333 16.5,13.5C 14.5168,13.1568 13.1834,13.8235 12.5,15.5C 11.3143,16.7054 11.3143,18.0387 12.5,19.5C 10.1139,25.3165 11.7805,29.6499 17.5,32.5C 18.1835,32.1373 18.8501,31.8039 19.5,31.5C 23.5,32.1667 27.5,32.8333 31.5,33.5C 29.1727,33.2471 27.1727,33.9137 25.5,35.5C 24.8076,34.9747 24.3076,34.3081 24,33.5C 20.2995,36.0456 16.6328,36.0456 13,33.5C 10.724,36.0636 8.72396,35.7303 7,32.5C 4.65372,30.294 4.15372,27.794 5.5,25C 6.44802,24.5172 7.44802,24.3505 8.5,24.5C 8.0198,21.9954 7.0198,19.6621 5.5,17.5C 5.80762,16.6919 6.30762,16.0253 7,15.5C 10.0858,19.1628 11.4192,18.1628 11,12.5C 11.3826,11.944 11.8826,11.6107 12.5,11.5 Z"/></g>
<g><path style="opacity:1" fill="#ee4f56" d="M 25.5,21.5 C 25.5,22.5 25.5,23.5 25.5,24.5C 24.1667,24.5 22.8333,24.5 21.5,24.5C 21.7066,21.3657 23.0399,20.3657 25.5,21.5 Z"/></g>
<g><path style="opacity:1" fill="#68ad53" d="M 25.5,21.5 C 27.674,21.7497 29.3406,22.7497 30.5,24.5C 28.8333,24.5 27.1667,24.5 25.5,24.5C 25.5,23.5 25.5,22.5 25.5,21.5 Z"/></g>
<g><path style="opacity:1" fill="#3d5b70" d="M 12.5,19.5 C 14.8744,20.6861 17.2078,20.6861 19.5,19.5C 19.5,23.5 19.5,27.5 19.5,31.5C 18.8501,31.8039 18.1835,32.1373 17.5,32.5C 11.7805,29.6499 10.1139,25.3165 12.5,19.5 Z"/></g>
<g><path style="opacity:1" fill="#728e99" d="M 21.5,26.5 C 24.5719,26.1826 27.5719,26.5159 30.5,27.5C 30.1667,28.1667 29.8333,28.8333 29.5,29.5C 26.9135,30.48 24.2469,30.8134 21.5,30.5C 21.5,29.1667 21.5,27.8333 21.5,26.5 Z"/></g>
</svg>
